<svg width="16" height="16" viewBox="0 0 16 16" fill="none" xmlns="http://www.w3.org/2000/svg">
<path d="M4.98438 2.22267C5.52626 2.78491 6.17596 3.23209 6.89463 3.53748C7.6133 3.84286 8.38618 4.00017 9.16704 4C9.95791 4.00023 10.7405 3.83917 11.467 3.52667" stroke="black" stroke-linecap="round" stroke-linejoin="round"/>
<path d="M8 7.5C9.933 7.5 11.5 5.933 11.5 4C11.5 2.067 9.933 0.5 8 0.5C6.067 0.5 4.5 2.067 4.5 4C4.5 5.933 6.067 7.5 8 7.5Z" stroke="black" stroke-linecap="round" stroke-linejoin="round"/>
<path d="M1.5 15.5C1.5 13.7761 2.18482 12.1228 3.40381 10.9038C4.62279 9.68482 6.27609 9 8 9C9.72391 9 11.3772 9.68482 12.5962 10.9038C13.8152 12.1228 14.5 13.7761 14.5 15.5" stroke="black" stroke-linecap="round" stroke-linejoin="round"/>
</svg>
